<svg xmlns="http://www.w3.org/2000/svg" version="1.1" xmlns:xlink="http://www.w3.org/1999/xlink" xmlns:svgjs="http://svgjs.com/svgjs" width="1920" height="1080" preserveAspectRatio="none" viewBox="0 0 1920 1080"><g mask="url(&quot;#SvgjsMask1110&quot;)" fill="none"><rect width="1920" height="1080" x="0" y="0" fill="rgba(32, 32, 32, 1)"></rect><path d="M0,481.463C88.913,477.687,128.812,364.973,205.046,319.058C284.71,271.077,404.005,285.631,454.648,207.631C505.227,129.729,469.451,26.325,454.641,-65.368C440.069,-155.586,421.747,-245.18,369.409,-320.095C313.307,-400.397,242.467,-478.109,148.05,-504.21C54.105,-530.181,-41.452,-487.132,-134.927,-459.518C-228.248,-431.95,-334.836,-418.835,-396.305,-343.4C-457.379,-268.45,-453.324,-162.203,-455.949,-65.556C-458.324,21.896,-455.444,112.381,-410.725,187.572C-368.118,259.211,-284.34,288.461,-216.554,336.965C-144.522,388.507,-88.493,485.222,0,481.463" fill="#1c1c1c"></path><path d="M1920 1581.48C2013.524 1564.442 2095.011 1523.51 2184.607 1491.737 2305.322 1448.9279999999999 2486.888 1479.674 2538.111 1362.282 2589.667 1244.127 2431.124 1135.302 2394.003 1011.849 2364.346 913.219 2408.447 792.992 2343.017 713.454 2277.4030000000002 633.693 2161.197 622.764 2059.431 605.1410000000001 1966.998 589.134 1874.667 592.77 1783.945 616.6379999999999 1691.104 641.0640000000001 1608.116 685.255 1532.094 743.8779999999999 1440.603 814.428 1318.2 876.7909999999999 1298.864 990.694 1279.545 1104.495 1388.605 1195.791 1437.6399999999999 1300.287 1486.0439999999999 1403.44 1486.778 1543.545 1585.218 1600.931 1683.785 1658.391 1807.754 1601.9279999999999 1920 1581.48" fill="#242424"></path></g><defs><mask id="SvgjsMask1110"><rect width="1920" height="1080" fill="#ffffff"></rect></mask></defs></svg>